<svg enable-background="new 0 0 140 140" height="512" viewBox="0 0 140 140" width="512" xmlns="http://www.w3.org/2000/svg"><circle cx="70" cy="70" fill="#509fd7" r="64"/><path d="m133.9699707 68.7197266c.0100098.4301757.0300293.8500976.0300293 1.2802734 0 35.3500977-28.6500244 64-64 64-4.4699707 0-8.8400879-.4599609-13.0600586-1.3398438l-20.3099365-20.3100586v-77.290039h5.4100342c0-1.6401367 1.3299561-2.9799805 2.9699707-2.9799805.8999023 0 1.6899414.4101562 2.2399902 1.0400391l1.5900879 1.5898438c.1699219-1.4697266 1.4199219-2.6298828 2.9299316-2.6298828.9199219 0 1.7399902.4296875 2.2800293 1.1000977l1.5400391 1.5395508c.1799316-1.4794922 1.4299316-2.6396484 2.9399414-2.6396484.9499512 0 1.7900391.4599609 2.3299561 1.1601562l1.4899902 1.4897461c.1700439-1.4799805 1.4200439-2.6499023 2.9500732-2.6499023.8898926 0 1.6799316.3999023 2.2199707 1.0297852l.0100098-.0200195 1.5999756 1.6000977c.1800537-1.4599609 1.4200439-2.6098633 2.9300537-2.6098633.8498535 0 1.619873.3701172 2.1599121.949707l1.6700439 1.6704102c.1800537-1.4702148 1.4100342-2.6201172 2.9300537-2.6201172.9499512 0 1.7799072.4599609 2.3299561 1.1499023l.0098877-.0102539 1.4901123 1.4902344c.1700439-1.4799805 1.4100342-2.6298828 2.9300537-2.6298828.9199219 0 1.7299805.4296875 2.2698975 1.0898438l1.9000244 1.8901364h4.2099609l4.4499512 4.449707v-.3496094c0-1.3701172 1.1101074-2.4799805 2.4801025-2.4799805.6800537 0 1.289917.2700195 1.7299805.7099609v-.0102539z" opacity=".1"/><path d="m93.95681 92.0984344v20.2517853h-57.3227043v-5.1016845h42.1832542z" fill="#dad7dc"/><path d="m36.633164 109.798119h57.324329v2.552097h-57.324329z" fill="#b0b1b5"/><path d="m93.9575195 35.0550728h-57.3243179v72.190876h45.41996l11.9043579-11.9042511z" fill="#e6e7e8"/><path d="m82.0531616 107.2459488 11.9043579-11.9042511h-11.9043579z" fill="#48b19a"/><g fill="#304651"><path d="m45.0126572 38.0256767v-1.0572243c1.0546417 0 1.9131203-.8579636 1.9131203-1.9131203 0-1.0551605-.8584785-1.9131203-1.9131203-1.9131203-1.0551605 0-1.9136391.8579597-1.9136391 1.9131203h-1.0572243c0-1.6374588 1.3328896-2.9703445 2.9708633-2.9703445s2.9703445 1.3328857 2.9703445 2.9703445c.0000001 1.6374551-1.3323706 2.9703446-2.9703444 2.9703446z"/><path d="m51.7736206 38.0256767v-1.0572243c1.0546455 0 1.9131203-.8579636 1.9131203-1.9131203 0-1.0551605-.8584747-1.9131203-1.9131203-1.9131203-1.0551567 0-1.9136353.8579597-1.9136353 1.9131203h-1.0572243c0-1.6374588 1.3328857-2.9703445 2.9708595-2.9703445s2.9703445 1.3328857 2.9703445 2.9703445c.0000001 1.6374551-1.3323706 2.9703446-2.9703444 2.9703446z"/><path d="m58.5345879 38.0256767v-1.0572243c1.0546417 0 1.9131203-.8579636 1.9131203-1.9131203 0-1.0551605-.8584785-1.9131203-1.9131203-1.9131203-1.0551567 0-1.9136353.8579597-1.9136353 1.9131203h-1.0572243c0-1.6374588 1.3328857-2.9703445 2.9708595-2.9703445s2.9703445 1.3328857 2.9703445 2.9703445c.0000001 1.6374551-1.3323707 2.9703446-2.9703444 2.9703446z"/><path d="m65.2955551 38.0256767v-1.0572243c1.0546417 0 1.9131165-.8579636 1.9131165-1.9131203 0-1.0551605-.8584747-1.9131203-1.9131165-1.9131203-1.0551605 0-1.9136391.8579597-1.9136391 1.9131203h-1.0572205c0-1.6374588 1.3328857-2.9703445 2.9708595-2.9703445 1.63797 0 2.9703445 1.3328857 2.9703445 2.9703445.0000002 1.6374551-1.3323744 2.9703446-2.9703444 2.9703446z"/><path d="m72.0565186 38.0256767v-1.0572243c1.0546417 0 1.9131241-.8579636 1.9131241-1.9131203 0-1.0551605-.8584824-1.9131203-1.9131241-1.9131203-1.0551605 0-1.9136353.8579597-1.9136353 1.9131203h-1.0572205c0-1.6374588 1.3328857-2.9703445 2.9708557-2.9703445 1.6379776 0 2.9703445 1.3328857 2.9703445 2.9703445.0000001 1.6374551-1.3323668 2.9703446-2.9703444 2.9703446z"/><path d="m78.8174896 38.0256767v-1.0572243c1.0546417 0 1.9131165-.8579636 1.9131165-1.9131203 0-1.0551605-.8584747-1.9131203-1.9131165-1.9131203-1.0551605 0-1.9136429.8579597-1.9136429 1.9131203h-1.0572205c0-1.6374588 1.3328857-2.9703445 2.9708633-2.9703445 1.63797 0 2.9703445 1.3328857 2.9703445 2.9703445.0000002 1.6374551-1.3323744 2.9703446-2.9703444 2.9703446z"/><path d="m85.5779343 38.0256767v-1.0572243c1.0551605 0 1.9136429-.8579636 1.9136429-1.9131203 0-1.0551605-.8584824-1.9131203-1.9136429-1.9131203-1.0546417 0-1.9131165.8579597-1.9131165 1.9131203h-1.0572281c0-1.6374588 1.3323746-2.9703445 2.9703445-2.9703445 1.6379776 0 2.9708633 1.3328857 2.9708633 2.9703445.0000001 1.6374551-1.3328856 2.9703446-2.9708632 2.9703446z"/></g><path d="m42.228893 46.959332h12.982209v12.982209h-12.982209z" fill="#d6b251"/><path d="m42.228893 64.659409h12.982209v12.982209h-12.982209z" fill="#ba9a43"/><path d="m42.228893 82.359482h12.982209v12.982209h-12.982209z" fill="#d6b251"/><g fill="#dad7dc"><path d="m60.298752 52.854569h28.063076v1.191732h-28.063076z"/><path d="m70.886169 55.639343h17.475658v1.191732h-17.475658z"/><path d="m60.298752 50.069798h28.063076v1.191732h-28.063076z"/><path d="m60.298752 70.554649h28.063076v1.191732h-28.063076z"/><path d="m70.886169 73.339417h17.475658v1.191732h-17.475658z"/><path d="m60.298752 67.769875h28.063076v1.191732h-28.063076z"/><path d="m60.298752 88.254723h28.063076v1.191732h-28.063076z"/><path d="m70.886169 91.039497h17.475658v1.191732h-17.475658z"/><path d="m60.298752 85.469948h28.063076v1.191732h-28.063076z"/></g><path d="m103.3699951 41.5297852v63.5102539l-2.4800415 1.1553802-2.4800415-1.1553802v-63.5102539z" fill="#ffcb08"/><path d="m100.061249 41.529015h1.65279v63.576946h-1.65279z" fill="#feed32"/><path d="m98.408455 40.090401h4.95837v1.563544h-4.95837z" fill="#e6e7e8"/><path d="m100.8876801 36.6780701c-1.3692169 0-2.4792252 1.1098785-2.4792252 2.4791603v1.0579987h4.9583817v-1.0579987c-.0000001-1.3692818-1.1099396-2.4791603-2.4791565-2.4791603z" fill="#db584d"/><path d="m98.4084549 105.0394363 2.4792099 4.9593583 2.4791641-4.9593583z" fill="#fdd96f"/><path d="m102.1318436 107.5161896-1.2475205 2.4845733-1.2369308-2.4845733z" fill="#304651"/></svg>