<?xml version="1.0"?>
<svg xmlns="http://www.w3.org/2000/svg" xmlns:xlink="http://www.w3.org/1999/xlink" xmlns:svgjs="http://svgjs.com/svgjs" version="1.1" width="512" height="512" x="0" y="0" viewBox="0 0 511 511.99925" style="enable-background:new 0 0 512 512" xml:space="preserve" class=""><g transform="matrix(1,0,0,-1,0,512)">
<g xmlns="http://www.w3.org/2000/svg" id="surface1">
<path d="M 318.304688 3.265625 C 316.367188 1.222656 313.714844 0 310.960938 0 L 146.246094 0 C 119.117188 0 96.472656 19.886719 91.984375 45.792969 C 69.140625 49.773438 51.1875 67.824219 47.210938 90.570312 C 20.796875 94.648438 0.5 117.597656 0.5 145.132812 L 0.5 456.617188 C 0.5 487.011719 25.078125 512 55.472656 512 L 279.039062 512 C 306.167969 512 328.710938 492.210938 333.300781 466.304688 C 356.65625 462.738281 375.21875 444.378906 379.195312 421.125 C 405.101562 416.636719 424.785156 393.996094 424.785156 366.761719 L 424.785156 119.535156 C 424.785156 116.882812 423.867188 114.332031 422.03125 112.394531 Z M 320.753906 36.003906 L 390.925781 109.132812 L 345.640625 109.132812 C 332.175781 109.132812 320.753906 98.320312 320.753906 84.855469 Z M 279.039062 491.601562 L 55.472656 491.601562 C 36.296875 491.601562 20.898438 475.792969 20.898438 456.617188 L 20.898438 145.136719 C 20.898438 129.222656 31.097656 115.761719 46.394531 111.683594 L 46.394531 411.742188 C 46.394531 442.136719 70.976562 467.125 101.367188 467.125 L 312.1875 467.125 C 307.800781 481.402344 294.644531 491.601562 279.039062 491.601562 Z M 324.9375 446.726562 L 101.367188 446.726562 C 82.296875 446.726562 66.792969 430.917969 66.792969 411.742188 L 66.792969 100.257812 C 66.792969 84.652344 76.992188 71.496094 91.269531 67.109375 L 91.269531 366.867188 C 91.269531 397.257812 115.851562 422.246094 146.246094 422.246094 L 358.082031 422.246094 C 353.699219 436.527344 340.539062 446.726562 324.9375 446.726562 Z M 369.8125 401.847656 L 146.246094 401.847656 C 127.171875 401.847656 111.671875 386.039062 111.671875 366.863281 L 111.671875 55.382812 C 111.671875 36.308594 127.070312 20.398438 146.246094 20.398438 L 300.355469 20.398438 L 300.355469 84.855469 C 300.355469 109.640625 320.855469 129.53125 345.640625 129.53125 L 404.386719 129.53125 L 404.386719 366.863281 C 404.386719 386.039062 388.988281 401.847656 369.8125 401.847656 Z M 369.8125 401.847656 " style="" fill="#1e608b" data-original="#000000" class=""/>
<path d="M 341.96875 336.574219 L 174.089844 336.574219 C 168.480469 336.574219 163.890625 341.164062 163.890625 346.773438 C 163.890625 352.382812 168.480469 356.972656 174.089844 356.972656 L 342.070312 356.972656 C 347.679688 356.972656 352.269531 352.382812 352.269531 346.773438 C 352.269531 341.164062 347.679688 336.574219 341.96875 336.574219 Z M 341.96875 336.574219 " style="" fill="#1e608b" data-original="#000000" class=""/>
<path d="M 299.742188 206.023438 L 267.71875 206.023438 L 267.71875 174.507812 C 267.71875 168.898438 263.128906 164.308594 257.519531 164.308594 C 251.910156 164.308594 247.320312 168.898438 247.320312 174.507812 L 247.320312 206.023438 L 216.3125 206.023438 C 210.703125 206.023438 206.113281 210.613281 206.113281 216.222656 C 206.113281 221.832031 210.703125 226.421875 216.3125 226.421875 L 247.320312 226.421875 L 247.320312 257.9375 C 247.320312 263.546875 251.910156 268.136719 257.519531 268.136719 C 263.128906 268.136719 267.71875 263.546875 267.71875 257.9375 L 267.71875 226.421875 L 299.742188 226.421875 C 305.355469 226.421875 309.941406 221.832031 309.941406 216.222656 C 309.941406 210.613281 305.355469 206.023438 299.742188 206.023438 Z M 299.742188 206.023438 " style="" fill="#1e608b" data-original="#000000" class=""/>
<path d="M 258.027344 112.292969 C 200.710938 112.292969 154.097656 158.902344 154.097656 216.222656 C 154.097656 273.542969 200.710938 320.152344 258.027344 320.152344 C 315.347656 320.152344 361.960938 273.542969 361.960938 216.222656 C 361.960938 158.902344 315.347656 112.292969 258.027344 112.292969 Z M 258.027344 299.753906 C 211.929688 299.753906 174.496094 262.324219 174.496094 216.222656 C 174.496094 170.125 211.929688 132.691406 258.027344 132.691406 C 304.128906 132.691406 341.558594 170.125 341.558594 216.222656 C 341.558594 262.324219 304.128906 299.753906 258.027344 299.753906 Z M 258.027344 299.753906 " style="" fill="#1e608b" data-original="#000000" class=""/>
</g>
</g></svg>
